<svg width="35" height="6" viewBox="0 0 35 6" fill="none" xmlns="http://www.w3.org/2000/svg">
<path d="M0.0765968 4.34814V0.363368H1.61516C1.83838 0.363368 2.03301 0.409489 2.19904 0.501729C2.36508 0.593969 2.49421 0.718493 2.58645 0.875301C2.67869 1.03027 2.72481 1.20183 2.72481 1.39C2.72481 1.604 2.66762 1.79494 2.55325 1.96281C2.43887 2.12885 2.28575 2.24415 2.09389 2.30871L2.08836 2.17312C2.34663 2.24691 2.54956 2.37605 2.69714 2.56053C2.84472 2.74501 2.91852 2.96823 2.91852 3.23019C2.91852 3.46079 2.86963 3.66003 2.77186 3.82791C2.67408 3.99394 2.53664 4.12216 2.35954 4.21255C2.18244 4.30295 1.97674 4.34814 1.74245 4.34814H0.0765968ZM0.486143 3.95797H1.64284C1.80518 3.95797 1.95092 3.92937 2.08005 3.87219C2.20919 3.81315 2.31065 3.73014 2.38445 3.62314C2.46008 3.51614 2.4979 3.387 2.4979 3.23573C2.4979 3.08814 2.46377 2.95532 2.39552 2.83725C2.32726 2.71918 2.23409 2.6251 2.11603 2.555C1.9998 2.48305 1.86698 2.44707 1.71755 2.44707H0.486143V3.95797ZM0.486143 2.06243H1.6124C1.73969 2.06243 1.85591 2.03384 1.96106 1.97665C2.06622 1.91762 2.14923 1.83737 2.21011 1.7359C2.27284 1.63444 2.3042 1.51729 2.3042 1.38447C2.3042 1.1963 2.23871 1.04318 2.10773 0.925111C1.97859 0.807044 1.81348 0.74801 1.6124 0.74801H0.486143V2.06243ZM4.47801 5.6764L5.05636 4.1074L5.06466 4.57229L3.75577 1.35956H4.18745L5.26113 4.04652H5.08403L6.07469 1.35956H6.48977L4.88479 5.6764H4.47801ZM9.24059 4.34814V0.363368H11.5291V0.770148H9.64737V2.15375H11.197V2.55776H9.64737V4.34814H9.24059ZM12.6659 4.34814V0.280352H13.0726V4.34814H12.6659ZM15.6262 4.42286C15.4473 4.42286 15.2905 4.39519 15.1558 4.33984C15.023 4.2845 14.9095 4.20978 14.8154 4.1157C14.7232 4.02161 14.6485 3.91462 14.5913 3.7947C14.5341 3.67295 14.4926 3.54473 14.4668 3.41006C14.4409 3.27355 14.428 3.13795 14.428 3.00328V1.35956H14.8376V2.88429C14.8376 3.04848 14.8532 3.20068 14.8846 3.34088C14.916 3.48109 14.9658 3.60377 15.034 3.70892C15.1041 3.81223 15.1936 3.89248 15.3025 3.94967C15.4131 4.00686 15.5469 4.03545 15.7037 4.03545C15.8476 4.03545 15.974 4.01055 16.0828 3.96074C16.1935 3.91093 16.2857 3.8399 16.3595 3.74766C16.4352 3.65358 16.4924 3.54012 16.5311 3.40729C16.5698 3.27262 16.5892 3.12135 16.5892 2.95347L16.877 3.01712C16.877 3.32336 16.8235 3.58071 16.7165 3.78917C16.6095 3.99763 16.4619 4.15536 16.2737 4.26236C16.0856 4.36936 15.8697 4.42286 15.6262 4.42286ZM16.6307 4.34814V3.61207H16.5892V1.35956H16.996V4.34814H16.6307ZM19.6151 4.43116C19.3237 4.43116 19.0709 4.36659 18.8569 4.23746C18.6448 4.10832 18.4797 3.92661 18.3616 3.69232C18.2435 3.45803 18.1845 3.18315 18.1845 2.86769C18.1845 2.54116 18.2426 2.2589 18.3588 2.02092C18.4751 1.78294 18.6383 1.59939 18.8486 1.47025C19.0608 1.34111 19.3108 1.27655 19.5985 1.27655C19.8937 1.27655 20.1455 1.3448 20.354 1.48132C20.5624 1.61599 20.7202 1.80969 20.8272 2.06243C20.9342 2.31517 20.9831 2.6168 20.9738 2.96731H20.5588V2.82341C20.5514 2.43601 20.4674 2.1436 20.3069 1.94621C20.1483 1.74882 19.9158 1.65012 19.6096 1.65012C19.2886 1.65012 19.0423 1.75435 18.8708 1.96281C18.701 2.17128 18.6162 2.46829 18.6162 2.85385C18.6162 3.23019 18.701 3.52259 18.8708 3.73106C19.0423 3.93768 19.2849 4.04098 19.5985 4.04098C19.8125 4.04098 19.9989 3.9921 20.1575 3.89432C20.318 3.7947 20.4444 3.65173 20.5366 3.46541L20.9157 3.61207C20.7977 3.87219 20.6233 4.07419 20.3927 4.21809C20.164 4.36014 19.9048 4.43116 19.6151 4.43116ZM18.4723 2.96731V2.62694H20.7552V2.96731H18.4723ZM24.2464 4.34814V2.82341C24.2464 2.65738 24.2307 2.50519 24.1994 2.36683C24.168 2.22662 24.1173 2.10486 24.0472 2.00155C23.9789 1.8964 23.8894 1.81523 23.7788 1.75804C23.6699 1.70085 23.5371 1.67226 23.3803 1.67226C23.2364 1.67226 23.1091 1.69716 22.9984 1.74697C22.8896 1.79678 22.7973 1.86873 22.7217 1.96281C22.6479 2.05505 22.5916 2.16759 22.5529 2.30041C22.5141 2.43324 22.4948 2.58451 22.4948 2.75423L22.207 2.69059C22.207 2.38435 22.2605 2.127 22.3675 1.91854C22.4745 1.71008 22.6221 1.55234 22.8102 1.44535C22.9984 1.33835 23.2142 1.28485 23.4578 1.28485C23.6367 1.28485 23.7926 1.31252 23.9254 1.36786C24.0601 1.42321 24.1735 1.49792 24.2658 1.59201C24.3599 1.68609 24.4355 1.79401 24.4927 1.91577C24.5499 2.03568 24.5914 2.1639 24.6172 2.30041C24.643 2.43508 24.656 2.56975 24.656 2.70442V4.34814H24.2464ZM22.0852 4.34814V1.35956H22.4533V2.09564H22.4948V4.34814H22.0852ZM27.5823 4.34814C27.4144 4.3832 27.2484 4.39703 27.0842 4.38965C26.9218 4.38227 26.7761 4.34722 26.647 4.2845C26.5197 4.22178 26.4228 4.124 26.3564 3.99118C26.3029 3.88049 26.2734 3.76888 26.2679 3.65634C26.2642 3.54197 26.2623 3.41191 26.2623 3.26617V0.529401H26.6663V3.24956C26.6663 3.37501 26.6673 3.48016 26.6691 3.56503C26.6728 3.64804 26.6922 3.72183 26.7272 3.7864C26.7936 3.91 26.8988 3.9838 27.0427 4.00778C27.1884 4.03176 27.3683 4.02623 27.5823 3.99118V4.34814ZM25.6231 1.70823V1.35956H27.5823V1.70823H25.6231ZM30.1646 4.34814L31.5371 0.363368H32.0767L33.4492 4.34814H33.0258L31.7225 0.590279H31.883L30.5879 4.34814H30.1646ZM30.7761 3.38239V3.00052H32.8349V3.38239H30.7761ZM34.5854 4.34814V0.363368H34.9922V4.34814H34.5854Z" fill="#21072D"/>
</svg>
