<svg width="131" height="9" viewBox="0 0 131 9" fill="none" xmlns="http://www.w3.org/2000/svg">
<path d="M0.60704 8.7334V0.738517H1.42318V7.95057H5.22075V8.7334H0.60704ZM19.1034 8.7334L21.8572 0.738517H22.9399L25.6937 8.7334H24.8442L22.2292 1.19378H22.5512L19.9529 8.7334H19.1034ZM20.3304 6.79575V6.02957H24.4611V6.79575H20.3304ZM40.1876 8.7334V0.738517H41.0093L45.412 7.28988V0.738517H46.2337V8.7334H45.412L41.0093 2.17648V8.7334H40.1876ZM64.4839 8.89996C63.9213 8.89996 63.4143 8.80187 62.9627 8.6057C62.5111 8.40953 62.1262 8.13008 61.8079 7.76735C61.4933 7.40462 61.2527 6.96786 61.0861 6.45708C60.9196 5.94259 60.8363 5.36889 60.8363 4.73596C60.8363 3.89946 60.9806 3.17029 61.2693 2.54847C61.5617 1.92294 61.98 1.43807 62.5241 1.09384C63.0682 0.749621 63.7215 0.577508 64.4839 0.577508C65.3352 0.577508 66.0274 0.777381 66.5604 1.17712C67.0971 1.57317 67.4709 2.10616 67.6819 2.7761L66.8602 2.97597C66.6862 2.4874 66.3994 2.09691 65.9996 1.8045C65.6036 1.5121 65.1095 1.36589 64.5173 1.36589C63.8917 1.36219 63.3717 1.50284 62.9571 1.78784C62.5426 2.06915 62.2298 2.46519 62.0189 2.97597C61.8116 3.48306 61.7061 4.06972 61.7024 4.73596C61.6987 5.4022 61.8005 5.98886 62.0077 6.49594C62.2187 6.99932 62.5333 7.39537 62.9516 7.68407C63.3698 7.96907 63.8917 8.11342 64.5173 8.11713C65.091 8.11713 65.5647 8.00609 65.9386 7.78401C66.3124 7.56193 66.5956 7.24361 66.788 6.82906C66.9842 6.41451 67.0952 5.92409 67.1211 5.35778H65.2779V4.65823H67.9761C67.9873 4.74336 67.9928 4.83404 67.9928 4.93028C67.9965 5.02281 67.9984 5.08943 67.9984 5.13015C67.9984 5.85191 67.8688 6.49779 67.6097 7.0678C67.3506 7.6341 66.9601 8.08196 66.4382 8.41138C65.9201 8.7371 65.2686 8.89996 64.4839 8.89996ZM85.7212 8.89996C85.1105 8.89996 84.5701 8.77411 84.1 8.52242C83.6337 8.27073 83.2672 7.9154 83.0007 7.45644C82.7342 6.99747 82.601 6.46078 82.601 5.84636V0.744069L83.4227 0.738517V5.74087C83.4227 6.15542 83.493 6.51445 83.6337 6.81796C83.7743 7.11777 83.9575 7.36576 84.1833 7.56193C84.4128 7.7544 84.6626 7.8969 84.9328 7.98943C85.203 8.08196 85.4658 8.12823 85.7212 8.12823C85.9803 8.12823 86.245 8.08196 86.5151 7.98943C86.7853 7.8969 87.0333 7.7544 87.2591 7.56193C87.4849 7.36576 87.6681 7.11777 87.8088 6.81796C87.9494 6.51445 88.0197 6.15542 88.0197 5.74087V0.738517H88.8414V5.84636C88.8414 6.46078 88.7082 6.99747 88.4417 7.45644C88.1752 7.9117 87.8069 8.26703 87.3368 8.52242C86.8705 8.77411 86.3319 8.89996 85.7212 8.89996ZM103.889 8.7334V0.738517H106.976C107.054 0.738517 107.141 0.742218 107.237 0.749621C107.337 0.753322 107.437 0.764426 107.537 0.782933C107.955 0.845855 108.308 0.992058 108.597 1.22154C108.89 1.44732 109.11 1.73232 109.258 2.07655C109.41 2.42077 109.485 2.80201 109.485 3.22026C109.485 3.82358 109.326 4.34732 109.008 4.79148C108.69 5.23564 108.234 5.51509 107.642 5.62983L107.359 5.69645H104.705V8.7334H103.889ZM108.73 8.7334L107.154 5.47993L107.936 5.18012L109.669 8.7334H108.73ZM104.705 4.91917H106.954C107.02 4.91917 107.098 4.91547 107.187 4.90807C107.276 4.90067 107.363 4.88771 107.448 4.86921C107.722 4.80998 107.946 4.69709 108.12 4.53053C108.297 4.36397 108.429 4.16595 108.514 3.93647C108.603 3.70699 108.647 3.46825 108.647 3.22026C108.647 2.97227 108.603 2.73354 108.514 2.50405C108.429 2.27087 108.297 2.071 108.12 1.90444C107.946 1.73788 107.722 1.62499 107.448 1.56577C107.363 1.54726 107.276 1.53615 107.187 1.53245C107.098 1.52505 107.02 1.52135 106.954 1.52135H104.705V4.91917ZM127.506 8.89996C126.895 8.89996 126.355 8.77411 125.884 8.52242C125.418 8.27073 125.052 7.9154 124.785 7.45644C124.519 6.99747 124.385 6.46078 124.385 5.84636V0.744069L125.207 0.738517V5.74087C125.207 6.15542 125.277 6.51445 125.418 6.81796C125.559 7.11777 125.742 7.36576 125.968 7.56193C126.197 7.7544 126.447 7.8969 126.717 7.98943C126.987 8.08196 127.25 8.12823 127.506 8.12823C127.765 8.12823 128.029 8.08196 128.3 7.98943C128.57 7.8969 128.818 7.7544 129.044 7.56193C129.269 7.36576 129.453 7.11777 129.593 6.81796C129.734 6.51445 129.804 6.15542 129.804 5.74087V0.738517H130.626V5.84636C130.626 6.46078 130.493 6.99747 130.226 7.45644C129.96 7.9117 129.591 8.26703 129.121 8.52242C128.655 8.77411 128.116 8.89996 127.506 8.89996Z" fill="#21072D"/>
</svg>
