<svg width="28" height="28" viewBox="0 0 28 28" fill="none" xmlns="http://www.w3.org/2000/svg">
<path d="M15.8963 1.05631C13.2591 2.44431 6.35381 8.22764 3.23081 10.9458C2.53678 11.5465 3.05734 11.6399 3.23084 11.8134C3.68283 12.2654 3.40434 12.5074 2.36334 13.2014C1.32234 13.8954 1.32234 14.7629 1.49584 15.2834C1.66934 15.8039 2.36334 15.6304 2.36334 16.4979C2.36334 17.3654 3.05734 17.8859 4.09834 17.5389C4.93115 17.2613 4.90801 17.6545 4.79235 17.8859L0.801813 21.5294C0.339146 21.8764 -0.412687 22.7786 0.281313 23.6114C1.66931 24.9994 2.82598 24.768 3.23081 24.4789C4.32965 23.9584 6.59671 22.8827 6.87431 22.7439C7.22131 22.5704 8.78281 23.0909 8.26231 23.7849C7.74181 24.4789 8.08881 25.6934 9.99731 24.9994C11.9058 24.3054 11.3853 24.9994 10.6913 25.8669C9.99731 26.7344 11.5588 27.0814 11.7323 27.0814C11.9058 27.0814 14.8553 25.6934 15.5493 25.5199C16.1045 25.3811 17.2843 26.0404 17.8048 26.3874C19.5976 25.5199 23.565 23.542 25.0918 22.5704C27.0003 21.3559 27.1738 23.0909 27.5208 20.6619C27.7984 18.7187 26.5955 18.8112 25.9593 19.1004C25.4966 19.3317 24.2937 19.8638 23.1833 20.1414C22.0729 20.419 22.7206 19.91 23.1833 19.6209L27.1738 16.4979C27.3473 16.3822 27.6596 16.0121 27.5208 15.4569C27.382 14.9017 26.5376 15.1099 26.1328 15.2834L23.7038 16.1509C24.34 15.8039 25.5082 14.9364 25.0918 14.2424C24.6754 13.5484 23.646 13.8375 23.1833 14.0689L18.6723 16.3244C15.8963 17.7124 17.4 16.3244 18.4988 15.4569C20.0603 14.4159 23.1833 12.1951 23.1833 11.6399C23.1833 11.0847 23.7616 10.5989 24.0508 10.4254C24.6291 10.1362 25.647 9.34966 25.0918 8.51686C24.5366 7.68406 23.0098 8.16986 22.3158 8.51686C21.9688 8.63253 20.1297 9.55787 15.5493 12.3339C10.9689 15.1099 13.4095 13.1435 15.2023 11.8134C18.1518 9.73137 24.1896 5.35916 24.7448 4.52636C25.4388 3.48536 24.3978 2.61781 21.9688 4.00586C19.5398 5.39392 19.3663 5.22036 20.5808 4.35286C21.5524 3.65886 22.8363 2.27092 23.0098 1.75032C23.5667 0.079011 23.0792 -1.16448 18.4988 1.75032C12.7733 5.39383 13.2938 4.52631 15.8963 2.61781C18.4988 0.709311 19.1928 -0.678688 15.8963 1.05631Z" fill="url(#paint0_linear_312_4)"/>
<defs>
<linearGradient id="paint0_linear_312_4" x1="13.7809" y1="0" x2="13.7809" y2="27.0814" gradientUnits="userSpaceOnUse">
<stop stop-color="#A558C8"/>
<stop offset="1" stop-color="#8832AF"/>
</linearGradient>
</defs>
</svg>
