<svg width="18" height="18" viewBox="0 0 18 18" fill="none" xmlns="http://www.w3.org/2000/svg">
<path fill-rule="evenodd" clip-rule="evenodd" d="M4.37838 9.00002C4.37838 6.44753 6.44754 4.37838 9.00002 4.37838C11.5525 4.37838 13.6216 6.44753 13.6216 9.00002C13.6216 11.5525 11.5525 13.6216 9.00002 13.6216C6.44754 13.6216 4.37838 11.5525 4.37838 9.00002ZM9.00002 12C7.34314 12 6 10.6569 6 9.00002C6 7.34314 7.34314 6 9.00002 6C10.6569 6 12 7.34314 12 9.00002C12 10.6569 10.6569 12 9.00002 12Z" fill="url(#paint0_linear_140_714)"/>
<path fill-rule="evenodd" clip-rule="evenodd" d="M4.37838 9.00002C4.37838 6.44753 6.44754 4.37838 9.00002 4.37838C11.5525 4.37838 13.6216 6.44753 13.6216 9.00002C13.6216 11.5525 11.5525 13.6216 9.00002 13.6216C6.44754 13.6216 4.37838 11.5525 4.37838 9.00002ZM9.00002 12C7.34314 12 6 10.6569 6 9.00002C6 7.34314 7.34314 6 9.00002 6C10.6569 6 12 7.34314 12 9.00002C12 10.6569 10.6569 12 9.00002 12Z" fill="url(#paint1_radial_140_714)"/>
<path d="M13.8042 5.27577C14.4007 5.27577 14.8842 4.79226 14.8842 4.19579C14.8842 3.59931 14.4007 3.11577 13.8042 3.11577C13.2078 3.11577 12.7242 3.59931 12.7242 4.19579C12.7242 4.79226 13.2078 5.27577 13.8042 5.27577Z" fill="url(#paint2_linear_140_714)"/>
<path d="M13.8042 5.27577C14.4007 5.27577 14.8842 4.79226 14.8842 4.19579C14.8842 3.59931 14.4007 3.11577 13.8042 3.11577C13.2078 3.11577 12.7242 3.59931 12.7242 4.19579C12.7242 4.79226 13.2078 5.27577 13.8042 5.27577Z" fill="url(#paint3_radial_140_714)"/>
<path fill-rule="evenodd" clip-rule="evenodd" d="M9.00002 0C6.55575 0 6.24926 0.0103604 5.28931 0.0541599C4.33137 0.0978523 3.67712 0.250007 3.10466 0.472506C2.51283 0.702472 2.01092 1.01021 1.51055 1.51055C1.01021 2.01092 0.702472 2.51283 0.472506 3.10466C0.250007 3.67712 0.0978523 4.33137 0.0541599 5.28931C0.0103604 6.24926 0 6.55575 0 9.00002C0 11.4443 0.0103604 11.7507 0.0541599 12.7107C0.0978523 13.6686 0.250007 14.3229 0.472506 14.8953C0.702472 15.4872 1.01021 15.9891 1.51055 16.4895C2.01092 16.9898 2.51283 17.2975 3.10466 17.5275C3.67712 17.75 4.33137 17.9021 5.28931 17.9458C6.24926 17.9896 6.55575 18 9.00002 18C11.4443 18 11.7507 17.9896 12.7107 17.9458C13.6686 17.9021 14.3229 17.75 14.8953 17.5275C15.4872 17.2975 15.9891 16.9898 16.4895 16.4895C16.9898 15.9891 17.2975 15.4872 17.5275 14.8953C17.75 14.3229 17.9021 13.6686 17.9458 12.7107C17.9896 11.7507 18 11.4443 18 9.00002C18 6.55575 17.9896 6.24926 17.9458 5.28931C17.9021 4.33137 17.75 3.67712 17.5275 3.10466C17.2975 2.51283 16.9898 2.01092 16.4895 1.51055C15.9891 1.01021 15.4872 0.702472 14.8953 0.472506C14.3229 0.250007 13.6686 0.0978523 12.7107 0.0541599C11.7507 0.0103604 11.4443 0 9.00002 0ZM9.00002 1.62162C11.4031 1.62162 11.6878 1.6308 12.6368 1.6741C13.5143 1.71411 13.9908 1.86073 14.3079 1.98398C14.728 2.14725 15.0279 2.34227 15.3428 2.65723C15.6577 2.97215 15.8528 3.27196 16.016 3.69206C16.1393 4.00919 16.2859 4.48574 16.3259 5.36323C16.3692 6.31224 16.3784 6.5969 16.3784 9.00002C16.3784 11.4031 16.3692 11.6878 16.3259 12.6368C16.2859 13.5143 16.1393 13.9908 16.016 14.3079C15.8528 14.728 15.6577 15.0278 15.3428 15.3428C15.0279 15.6577 14.728 15.8528 14.3079 16.016C13.9908 16.1393 13.5143 16.2859 12.6368 16.3259C11.6879 16.3692 11.4033 16.3784 9.00002 16.3784C6.59673 16.3784 6.31214 16.3692 5.36323 16.3259C4.48574 16.2859 4.0092 16.1393 3.69206 16.016C3.27196 15.8528 2.97215 15.6577 2.65723 15.3428C2.34231 15.0278 2.14725 14.728 1.98398 14.3079C1.86073 13.9908 1.71411 13.5143 1.6741 12.6368C1.6308 11.6878 1.62162 11.4031 1.62162 9.00002C1.62162 6.5969 1.6308 6.31224 1.6741 5.36323C1.71411 4.48574 1.86073 4.00919 1.98398 3.69206C2.14725 3.27196 2.34228 2.97215 2.65723 2.65723C2.97215 2.34227 3.27196 2.14725 3.69206 1.98398C4.0092 1.86073 4.48574 1.71411 5.36323 1.6741C6.31224 1.6308 6.5969 1.62162 9.00002 1.62162Z" fill="url(#paint4_linear_140_714)"/>
<path fill-rule="evenodd" clip-rule="evenodd" d="M9.00002 0C6.55575 0 6.24926 0.0103604 5.28931 0.0541599C4.33137 0.0978523 3.67712 0.250007 3.10466 0.472506C2.51283 0.702472 2.01092 1.01021 1.51055 1.51055C1.01021 2.01092 0.702472 2.51283 0.472506 3.10466C0.250007 3.67712 0.0978523 4.33137 0.0541599 5.28931C0.0103604 6.24926 0 6.55575 0 9.00002C0 11.4443 0.0103604 11.7507 0.0541599 12.7107C0.0978523 13.6686 0.250007 14.3229 0.472506 14.8953C0.702472 15.4872 1.01021 15.9891 1.51055 16.4895C2.01092 16.9898 2.51283 17.2975 3.10466 17.5275C3.67712 17.75 4.33137 17.9021 5.28931 17.9458C6.24926 17.9896 6.55575 18 9.00002 18C11.4443 18 11.7507 17.9896 12.7107 17.9458C13.6686 17.9021 14.3229 17.75 14.8953 17.5275C15.4872 17.2975 15.9891 16.9898 16.4895 16.4895C16.9898 15.9891 17.2975 15.4872 17.5275 14.8953C17.75 14.3229 17.9021 13.6686 17.9458 12.7107C17.9896 11.7507 18 11.4443 18 9.00002C18 6.55575 17.9896 6.24926 17.9458 5.28931C17.9021 4.33137 17.75 3.67712 17.5275 3.10466C17.2975 2.51283 16.9898 2.01092 16.4895 1.51055C15.9891 1.01021 15.4872 0.702472 14.8953 0.472506C14.3229 0.250007 13.6686 0.0978523 12.7107 0.0541599C11.7507 0.0103604 11.4443 0 9.00002 0ZM9.00002 1.62162C11.4031 1.62162 11.6878 1.6308 12.6368 1.6741C13.5143 1.71411 13.9908 1.86073 14.3079 1.98398C14.728 2.14725 15.0279 2.34227 15.3428 2.65723C15.6577 2.97215 15.8528 3.27196 16.016 3.69206C16.1393 4.00919 16.2859 4.48574 16.3259 5.36323C16.3692 6.31224 16.3784 6.5969 16.3784 9.00002C16.3784 11.4031 16.3692 11.6878 16.3259 12.6368C16.2859 13.5143 16.1393 13.9908 16.016 14.3079C15.8528 14.728 15.6577 15.0278 15.3428 15.3428C15.0279 15.6577 14.728 15.8528 14.3079 16.016C13.9908 16.1393 13.5143 16.2859 12.6368 16.3259C11.6879 16.3692 11.4033 16.3784 9.00002 16.3784C6.59673 16.3784 6.31214 16.3692 5.36323 16.3259C4.48574 16.2859 4.0092 16.1393 3.69206 16.016C3.27196 15.8528 2.97215 15.6577 2.65723 15.3428C2.34231 15.0278 2.14725 14.728 1.98398 14.3079C1.86073 13.9908 1.71411 13.5143 1.6741 12.6368C1.6308 11.6878 1.62162 11.4031 1.62162 9.00002C1.62162 6.5969 1.6308 6.31224 1.6741 5.36323C1.71411 4.48574 1.86073 4.00919 1.98398 3.69206C2.14725 3.27196 2.34228 2.97215 2.65723 2.65723C2.97215 2.34227 3.27196 2.14725 3.69206 1.98398C4.0092 1.86073 4.48574 1.71411 5.36323 1.6741C6.31224 1.6308 6.5969 1.62162 9.00002 1.62162Z" fill="url(#paint5_radial_140_714)"/>
<defs>
<linearGradient id="paint0_linear_140_714" x1="1.05024" y1="0.946312" x2="6.72549" y2="22.8989" gradientUnits="userSpaceOnUse">
<stop stop-color="#4E60D3"/>
<stop offset="0.142763" stop-color="#913BAF"/>
<stop offset="0.761458" stop-color="#D52D88"/>
<stop offset="1" stop-color="#F26D4F"/>
</linearGradient>
<radialGradient id="paint1_radial_140_714" cx="0" cy="0" r="1" gradientUnits="userSpaceOnUse" gradientTransform="translate(5.44938 18) rotate(32.1601) scale(16.811 12.0984)">
<stop stop-color="#FED276"/>
<stop offset="0.17024" stop-color="#FDBD61" stop-opacity="0.975006"/>
<stop offset="0.454081" stop-color="#F6804D"/>
<stop offset="1" stop-color="#E83D5C" stop-opacity="0.01"/>
</radialGradient>
<linearGradient id="paint2_linear_140_714" x1="1.05024" y1="0.946312" x2="6.72549" y2="22.8989" gradientUnits="userSpaceOnUse">
<stop stop-color="#4E60D3"/>
<stop offset="0.142763" stop-color="#913BAF"/>
<stop offset="0.761458" stop-color="#D52D88"/>
<stop offset="1" stop-color="#F26D4F"/>
</linearGradient>
<radialGradient id="paint3_radial_140_714" cx="0" cy="0" r="1" gradientUnits="userSpaceOnUse" gradientTransform="translate(5.44938 18) rotate(32.1601) scale(16.811 12.0984)">
<stop stop-color="#FED276"/>
<stop offset="0.17024" stop-color="#FDBD61" stop-opacity="0.975006"/>
<stop offset="0.454081" stop-color="#F6804D"/>
<stop offset="1" stop-color="#E83D5C" stop-opacity="0.01"/>
</radialGradient>
<linearGradient id="paint4_linear_140_714" x1="1.05024" y1="0.946312" x2="6.72549" y2="22.8989" gradientUnits="userSpaceOnUse">
<stop stop-color="#4E60D3"/>
<stop offset="0.142763" stop-color="#913BAF"/>
<stop offset="0.761458" stop-color="#D52D88"/>
<stop offset="1" stop-color="#F26D4F"/>
</linearGradient>
<radialGradient id="paint5_radial_140_714" cx="0" cy="0" r="1" gradientUnits="userSpaceOnUse" gradientTransform="translate(5.44938 18) rotate(32.1601) scale(16.811 12.0984)">
<stop stop-color="#FED276"/>
<stop offset="0.17024" stop-color="#FDBD61" stop-opacity="0.975006"/>
<stop offset="0.454081" stop-color="#F6804D"/>
<stop offset="1" stop-color="#E83D5C" stop-opacity="0.01"/>
</radialGradient>
</defs>
</svg>
