<svg width="26" height="24" viewBox="0 0 26 24" fill="none" xmlns="http://www.w3.org/2000/svg">
<path d="M16.4787 23.0891V0.908843C16.4785 0.683836 16.395 0.466856 16.2442 0.300009C16.0934 0.132944 15.8862 0.0278413 15.6624 0.00478937C15.4385 -0.0182615 15.2141 0.042432 15.0324 0.175237L7.07146 6.02646H3.49095C2.76729 6.02646 2.0734 6.31386 1.56164 6.82564C1.04987 7.33743 0.762451 8.03146 0.762451 8.75495V15.2428C0.762451 15.9663 1.04985 16.6604 1.56164 17.1722C2.07342 17.6839 2.76729 17.9713 3.49095 17.9713H7.06827L15.0325 23.8226C15.2142 23.9566 15.4392 24.0182 15.6637 23.9953C15.8881 23.9727 16.0962 23.8674 16.2474 23.6999C16.3986 23.5324 16.4821 23.3146 16.4817 23.089L16.4787 23.0891ZM6.45889 16.1524H3.49084C3.24976 16.1524 3.0184 16.0567 2.84773 15.8862C2.67729 15.7155 2.58148 15.4842 2.58148 15.2431V8.75521C2.58148 8.51413 2.67728 8.28277 2.84773 8.1121C3.01839 7.94166 3.24975 7.84585 3.49084 7.84585H6.45889V16.1524ZM14.6597 21.2913L8.27793 16.6012V7.39667L14.6597 2.70655V21.2913Z" fill="#A558C8"/>
<path d="M18.589 14.0789C18.3636 14.1737 18.1858 14.3553 18.0957 14.5827C18.0056 14.81 18.0109 15.064 18.1105 15.2875C18.2099 15.5109 18.3951 15.6849 18.6244 15.7701C18.8536 15.8554 19.1074 15.8446 19.3288 15.7405C20.302 15.3116 21.0701 14.5205 21.4698 13.5348C21.8695 12.5491 21.8695 11.4465 21.4698 10.4608C21.0701 9.47514 20.302 8.68402 19.3288 8.25514C19.0334 8.13101 18.6944 8.1714 18.4366 8.36152C18.1788 8.55163 18.0399 8.86356 18.0712 9.18224C18.1025 9.50115 18.2992 9.78009 18.5891 9.91646C19.1309 10.154 19.5585 10.5934 19.7812 11.1415C20.0039 11.6897 20.0039 12.303 19.7812 12.8509C19.5585 13.399 19.1309 13.8385 18.5891 14.076L18.589 14.0789Z" fill="#A558C8"/>
<path d="M19.4346 4.9051C19.1157 4.84272 18.7877 4.95543 18.5743 5.20053C18.3609 5.44563 18.2943 5.78587 18.4 6.09337C18.5055 6.40065 18.7669 6.62841 19.086 6.69079C20.7226 7.03359 22.1095 8.11299 22.8442 9.61532C23.5786 11.1176 23.5786 12.8748 22.8442 14.3773C22.1095 15.8797 20.7226 16.9588 19.086 17.3019C18.7669 17.364 18.5055 17.5918 18.4 17.8993C18.2943 18.2066 18.3609 18.5468 18.5743 18.7919C18.7876 19.037 19.1156 19.1497 19.4346 19.0875C21.635 18.642 23.504 17.2009 24.4946 15.1863C25.4853 13.1717 25.4853 10.8116 24.4946 8.79691C23.504 6.78238 21.635 5.34139 19.4346 4.89579V4.9051Z" fill="#A558C8"/>
</svg>
