<svg width="18" height="16" viewBox="0 0 18 16" fill="none" xmlns="http://www.w3.org/2000/svg">
<path d="M16.1572 4.24588C16.1682 4.40862 16.1682 4.57136 16.1682 4.7356C16.1682 9.73997 12.4534 15.5115 5.6607 15.5115V15.5085C3.65411 15.5115 1.68921 14.9221 0 13.8107C0.291773 13.8467 0.585009 13.8647 0.878976 13.8654C2.54186 13.8669 4.15722 13.2947 5.46545 12.241C3.88519 12.2103 2.49945 11.1536 2.01536 9.61098C2.56892 9.72047 3.13931 9.69797 3.68263 9.54574C1.95978 9.18876 0.720293 7.63638 0.720293 5.83352C0.720293 5.81702 0.720293 5.80127 0.720293 5.78552C1.23364 6.07875 1.80841 6.24148 2.39634 6.25948C0.773675 5.14732 0.273492 2.93348 1.25338 1.20261C3.12834 3.56869 5.8947 5.00708 8.86435 5.15932C8.56673 3.84391 8.97331 2.46552 9.93272 1.54084C11.4201 0.106946 13.7594 0.180441 15.1576 1.70508C15.9846 1.53784 16.7773 1.22661 17.5027 0.785645C17.2271 1.66233 16.6501 2.40702 15.8793 2.88024C16.6113 2.79174 17.3265 2.59076 18 2.28403C17.5042 3.04597 16.8797 3.70967 16.1572 4.24588Z" fill="#1D9BF0"/>
</svg>
