<svg width="26" height="26" viewBox="0 0 26 26" fill="none" xmlns="http://www.w3.org/2000/svg">
<path d="M13.0001 23.8332C18.9833 23.8332 23.8334 18.9831 23.8334 12.9998C23.8334 7.01659 18.9833 2.1665 13.0001 2.1665C7.01683 2.1665 2.16675 7.01659 2.16675 12.9998C2.16675 14.9726 2.69433 16.824 3.61625 18.4165L2.70841 23.2915L7.58341 22.3837C9.22958 23.336 11.0983 23.8361 13.0001 23.8332Z" stroke="white" stroke-width="1.625" stroke-linecap="round" stroke-linejoin="round"/>
<path d="M7.58325 9.22691H12.9999M12.9999 9.22691H16.4818M12.9999 9.22691V7.5835M18.4166 9.22691H16.4818M16.4818 9.22691C15.8469 11.4748 14.5177 13.6003 12.9999 15.4669M12.9999 15.4669C11.7433 17.0139 10.3566 18.3843 9.13134 19.5002M12.9999 15.4669C12.2264 14.5688 11.1431 13.1161 10.8333 12.4585M12.9999 15.4669L15.3215 17.8567" stroke="white" stroke-width="1.625" stroke-linecap="round" stroke-linejoin="round"/>
</svg>
